<svg id="Layer_1" data-name="Layer 1" xmlns="http://www.w3.org/2000/svg" viewBox="0 0 75 30"><defs><style>.cls-1{fill:#12110c;}.cls-2{fill:#89bd24;}</style></defs><title>dt-logo</title><path class="cls-1" d="M25.9,13.2H24.5V6.6h1.4a3,3,0,0,1,3.3,3.3,3,3,0,0,1-3.3,3.3M26,5.1H22.6v9.7H26c3.4,0,5.2-2.1,5.2-4.9S29.4,5.1,26,5.1"/><path class="cls-1" d="M35.4,9a1.5,1.5,0,0,1,1.5,1.5H33.7A1.7,1.7,0,0,1,35.4,9m0,6a3.2,3.2,0,0,0,3.3-2.3H36.9a1.4,1.4,0,0,1-1.5.9,1.8,1.8,0,0,1-1.8-1.9h5.1v-.5a3.2,3.2,0,0,0-3.3-3.5,3.4,3.4,0,0,0-3.6,3.7A3.3,3.3,0,0,0,35.4,15"/><path class="cls-1" d="M42.9,9.1a1.4,1.4,0,0,1,1.5,1.2h1.8c-.1-1.4-1.2-2.6-3.3-2.6a3.4,3.4,0,0,0-3.5,3.7A3.2,3.2,0,0,0,42.9,15c2.1,0,3.2-1.2,3.3-2.6H44.4a1.4,1.4,0,0,1-1.5,1.2c-1,0-1.7-.9-1.7-2.2s.7-2.3,1.7-2.3"/><path class="cls-1" d="M54.1,10.7l-1.2-.2c-.8-.1-1.1-.3-1.1-.8s.5-.8,1.3-.8,1.3.3,1.3.9h1.7c0-1.4-1.3-2.1-3-2.1S50,8.5,50,10s1,1.7,2.2,1.9l1.3.2c.6.1,1,.3,1,.8s-.5.9-1.5.9-1.4-.3-1.4-1H49.9c0,1.5,1.3,2.2,3.1,2.2s3.3-.8,3.3-2.3-1.1-1.8-2.2-2"/><path class="cls-1" d="M63.7,13.6c-1,0-1.7-.9-1.7-2.2s.7-2.3,1.7-2.3,1.8.9,1.8,2.3-.7,2.2-1.8,2.2m0-5.9a3.4,3.4,0,0,0-3.6,3.7A3.4,3.4,0,0,0,63.7,15a3.4,3.4,0,0,0,3.7-3.6,3.5,3.5,0,0,0-3.7-3.7"/><path class="cls-1" d="M72.3,7.7a2.1,2.1,0,0,0-2.1,1.2h-.1v-1H68.4v6.9h1.8V11.2c0-1.3.7-2.1,1.6-2.1s1.3.5,1.3,1.7v4h1.8V10.6c0-2.1-1.2-2.9-2.6-2.9"/><polygon class="cls-1" points="22.6 18.7 25.8 18.7 25.8 26.8 27.7 26.8 27.7 18.7 31 18.7 31 17.1 22.6 17.1 22.6 18.7"/><rect class="cls-1" x="31.5" y="17.1" width="1.9" height="1.59"/><rect class="cls-1" x="31.6" y="19.9" width="1.8" height="6.89"/><rect class="cls-1" x="47" y="5.1" width="1.9" height="1.59"/><rect class="cls-1" x="47.1" y="7.9" width="1.8" height="6.89"/><rect class="cls-1" x="57.3" y="5.1" width="1.9" height="1.59"/><rect class="cls-1" x="57.3" y="7.9" width="1.8" height="6.89"/><path class="cls-1" d="M43.4,19.7a2.4,2.4,0,0,0-2.3,1.4,2.3,2.3,0,0,0-2.3-1.4,2.2,2.2,0,0,0-2.1,1.2h0v-1H34.9v6.9h1.9V23.1c0-1.2.6-2,1.5-2s1.2.5,1.2,1.7v4h1.8V23.1c0-1.2.7-2,1.6-2s1.2.5,1.2,1.7v4h1.8V22.6c0-2.1-1.1-2.9-2.5-2.9"/><path class="cls-1" d="M48.8,22.5A1.7,1.7,0,0,1,50.4,21c.9,0,1.4.5,1.6,1.5Zm1.6-2.8a3.4,3.4,0,0,0-3.5,3.7A3.3,3.3,0,0,0,50.5,27a3.2,3.2,0,0,0,3.3-2.3H52a1.5,1.5,0,0,1-1.5.9,1.8,1.8,0,0,1-1.8-1.9h5.1v-.5a3.2,3.2,0,0,0-3.4-3.5"/><path class="cls-2" d="M0,0V16.8L6.2,30.1a15.7,15.7,0,0,0,9.5-14.4A15.7,15.7,0,0,0,0,0"/></svg>