<?xml version="1.0" encoding="utf-8"?>
<!-- Generator: Adobe Illustrator 23.0.1, SVG Export Plug-In . SVG Version: 6.00 Build 0)  -->
<svg version="1.1" id="Layer_1" xmlns="http://www.w3.org/2000/svg" xmlns:xlink="http://www.w3.org/1999/xlink" x="0px" y="0px"
	 viewBox="0 0 75 30" style="enable-background:new 0 0 75 30;" xml:space="preserve">
<style type="text/css">
	.st0{fill:#FFFFFF;}
	.st1{fill:#89BD24;}
</style>
<title>dt-logo</title>
<path class="st0" d="M25.9,13.2h-1.4V6.6h1.4c1.6-0.2,3.1,1,3.3,2.7c0,0.2,0,0.4,0,0.6c0.2,1.6-1,3.1-2.7,3.3
	C26.3,13.2,26.1,13.2,25.9,13.2 M26,5.1h-3.4v9.7H26c3.4,0,5.2-2.1,5.2-4.9S29.4,5.1,26,5.1"/>
<path class="st0" d="M35.4,9c0.8,0,1.5,0.7,1.5,1.5h-3.2C33.8,9.6,34.5,9,35.4,9 M35.4,15c1.5,0.1,2.9-0.9,3.3-2.3h-1.8
	c-0.2,0.6-0.9,1-1.5,0.9c-1,0-1.8-0.8-1.8-1.8c0,0,0-0.1,0-0.1h5.1v-0.5c0.2-1.8-1.1-3.3-2.9-3.5c-0.1,0-0.3,0-0.4,0
	c-1.9-0.1-3.5,1.3-3.6,3.2c0,0.2,0,0.3,0,0.5c-0.2,1.8,1.2,3.4,3,3.6C35,15,35.2,15,35.4,15"/>
<path class="st0" d="M42.9,9.1c0.7-0.1,1.4,0.5,1.5,1.2h1.8c-0.1-1.4-1.2-2.6-3.3-2.6C41,7.6,39.5,9.1,39.4,11c0,0.1,0,0.3,0,0.4
	c-0.2,1.8,1,3.4,2.8,3.6c0.2,0,0.5,0,0.7,0c2.1,0,3.2-1.2,3.3-2.6h-1.8c-0.1,0.7-0.8,1.3-1.5,1.2c-1,0-1.7-0.9-1.7-2.2
	S41.9,9.1,42.9,9.1"/>
<path class="st0" d="M54.1,10.7l-1.2-0.2c-0.8-0.1-1.1-0.3-1.1-0.8s0.5-0.8,1.3-0.8s1.3,0.3,1.3,0.9h1.7c0-1.4-1.3-2.1-3-2.1
	S50,8.5,50,10s1,1.7,2.2,1.9l1.3,0.2c0.6,0.1,1,0.3,1,0.8S54,13.8,53,13.8s-1.4-0.3-1.4-1h-1.7c0,1.5,1.3,2.2,3.1,2.2
	s3.3-0.8,3.3-2.3S55.2,10.9,54.1,10.7"/>
<path class="st0" d="M63.7,13.6c-1,0-1.7-0.9-1.7-2.2s0.7-2.3,1.7-2.3c1,0,1.8,0.9,1.8,2.3S64.8,13.6,63.7,13.6 M63.7,7.7
	c-1.9-0.1-3.5,1.3-3.6,3.2c0,0.2,0,0.3,0,0.5c-0.1,1.9,1.3,3.5,3.2,3.6c0.1,0,0.3,0,0.4,0c1.9,0.2,3.5-1.2,3.7-3.1
	c0-0.2,0-0.3,0-0.5c0.1-1.9-1.4-3.6-3.3-3.7C64,7.7,63.8,7.7,63.7,7.7"/>
<path class="st0" d="M72.3,7.7c-0.9-0.1-1.7,0.4-2.1,1.2h-0.1v-1h-1.7v6.9h1.8v-3.6c0-1.3,0.7-2.1,1.6-2.1s1.3,0.5,1.3,1.7v4h1.8
	v-4.2C74.9,8.5,73.7,7.7,72.3,7.7"/>
<polygon class="st0" points="22.6,18.7 25.8,18.7 25.8,26.8 27.7,26.8 27.7,18.7 31,18.7 31,17.1 22.6,17.1 "/>
<rect x="31.5" y="17.1" class="st0" width="1.9" height="1.6"/>
<rect x="31.6" y="19.9" class="st0" width="1.8" height="6.9"/>
<rect x="47" y="5.1" class="st0" width="1.9" height="1.6"/>
<rect x="47.1" y="7.9" class="st0" width="1.8" height="6.9"/>
<rect x="57.3" y="5.1" class="st0" width="1.9" height="1.6"/>
<rect x="57.3" y="7.9" class="st0" width="1.8" height="6.9"/>
<path class="st0" d="M43.4,19.7c-1,0-1.9,0.5-2.3,1.4c-0.4-0.9-1.3-1.5-2.3-1.4c-0.9-0.1-1.7,0.4-2.1,1.2l0,0v-1h-1.8v6.9h1.9v-3.7
	c0-1.2,0.6-2,1.5-2s1.2,0.5,1.2,1.7v4h1.8v-3.7c0-1.2,0.7-2,1.6-2s1.2,0.5,1.2,1.7v4h1.8v-4.2C45.9,20.5,44.8,19.7,43.4,19.7"/>
<path class="st0" d="M48.8,22.5c0.1-0.8,0.8-1.5,1.6-1.5c0.9,0,1.4,0.5,1.6,1.5H48.8z M50.4,19.7c-1.9-0.1-3.4,1.4-3.5,3.3
	c0,0.1,0,0.3,0,0.4c-0.2,1.8,1.2,3.4,3,3.6c0.2,0,0.4,0,0.6,0c1.5,0.1,2.9-0.9,3.3-2.3H52c-0.3,0.6-0.9,1-1.5,0.9
	c-1,0-1.8-0.8-1.8-1.8c0,0,0-0.1,0-0.1h5.1v-0.5c0.2-1.8-1.1-3.3-2.9-3.5C50.7,19.7,50.6,19.7,50.4,19.7"/>
<path class="st1" d="M0,0v16.7L6.2,30c5.7-2.5,9.5-8.1,9.5-14.4C15.6,7,8.6,0,0,0C0,0,0,0,0,0"/>
</svg>
